<?xml version="1.0" encoding="UTF-8" standalone="no"?>
<!DOCTYPE svg PUBLIC "-//W3C//DTD SVG 1.1//EN"
 "http://www.w3.org/Graphics/SVG/1.1/DTD/svg11.dtd">
<!-- Generated by graphviz version 2.43.0 (0)
 -->
<!-- Title: %3 Pages: 1 -->
<svg width="918pt" height="980pt"
 viewBox="0.00 0.00 917.89 980.00" xmlns="http://www.w3.org/2000/svg" xmlns:xlink="http://www.w3.org/1999/xlink">
<g id="graph0" class="graph" transform="scale(1 1) rotate(0) translate(4 976)">
<title>%3</title>
<polygon fill="white" stroke="transparent" points="-4,4 -4,-976 913.89,-976 913.89,4 -4,4"/>
<!-- n1 -->
<g id="node1" class="node">
<title>n1</title>
<ellipse fill="none" stroke="black" cx="192.85" cy="-954" rx="64.19" ry="18"/>
<text text-anchor="middle" x="192.85" y="-950.3" font-family="Times,serif" font-size="14.00">Declaration</text>
</g>
<!-- n2 -->
<g id="node2" class="node">
<title>n2</title>
<ellipse fill="none" stroke="black" cx="44.85" cy="-882" rx="44.69" ry="18"/>
<text text-anchor="middle" x="44.85" y="-878.3" font-family="Times,serif" font-size="14.00">lambda</text>
</g>
<!-- n1&#45;&gt;n2 -->
<g id="edge1" class="edge">
<title>n1&#45;&gt;n2</title>
<path fill="none" stroke="black" d="M161.46,-938.15C138.24,-927.17 106.52,-912.17 82.03,-900.59"/>
<polygon fill="black" stroke="black" points="83.23,-897.28 72.69,-896.17 80.24,-903.61 83.23,-897.28"/>
</g>
<!-- n3 -->
<g id="node3" class="node">
<title>n3</title>
<ellipse fill="none" stroke="black" cx="149.85" cy="-882" rx="42.49" ry="18"/>
<text text-anchor="middle" x="149.85" y="-878.3" font-family="Times,serif" font-size="14.00">Arglist</text>
</g>
<!-- n1&#45;&gt;n3 -->
<g id="edge8" class="edge">
<title>n1&#45;&gt;n3</title>
<path fill="none" stroke="black" d="M182.44,-936.05C177.37,-927.8 171.16,-917.7 165.53,-908.54"/>
<polygon fill="black" stroke="black" points="168.38,-906.48 160.16,-899.79 162.41,-910.14 168.38,-906.48"/>
</g>
<!-- n10 -->
<g id="node10" class="node">
<title>n10</title>
<ellipse fill="none" stroke="black" cx="236.85" cy="-882" rx="27" ry="18"/>
<text text-anchor="middle" x="236.85" y="-878.3" font-family="Times,serif" font-size="14.00">:</text>
</g>
<!-- n1&#45;&gt;n10 -->
<g id="edge9" class="edge">
<title>n1&#45;&gt;n10</title>
<path fill="none" stroke="black" d="M203.5,-936.05C208.89,-927.47 215.55,-916.89 221.48,-907.44"/>
<polygon fill="black" stroke="black" points="224.54,-909.16 226.9,-898.83 218.61,-905.43 224.54,-909.16"/>
</g>
<!-- n11 -->
<g id="node11" class="node">
<title>n11</title>
<ellipse fill="none" stroke="black" cx="429.85" cy="-882" rx="27" ry="18"/>
<text text-anchor="middle" x="429.85" y="-878.3" font-family="Times,serif" font-size="14.00">El</text>
</g>
<!-- n1&#45;&gt;n11 -->
<g id="edge50" class="edge">
<title>n1&#45;&gt;n11</title>
<path fill="none" stroke="black" d="M235.49,-940.4C281.41,-926.84 353.56,-905.53 395.83,-893.05"/>
<polygon fill="black" stroke="black" points="397.04,-896.34 405.64,-890.15 395.06,-889.63 397.04,-896.34"/>
</g>
<!-- n4 -->
<g id="node4" class="node">
<title>n4</title>
<ellipse fill="none" stroke="black" cx="136.85" cy="-810" rx="40.89" ry="18"/>
<text text-anchor="middle" x="136.85" y="-806.3" font-family="Times,serif" font-size="14.00">Varlist</text>
</g>
<!-- n3&#45;&gt;n4 -->
<g id="edge7" class="edge">
<title>n3&#45;&gt;n4</title>
<path fill="none" stroke="black" d="M146.63,-863.7C145.2,-855.98 143.48,-846.71 141.88,-838.11"/>
<polygon fill="black" stroke="black" points="145.29,-837.3 140.02,-828.1 138.41,-838.58 145.29,-837.3"/>
</g>
<!-- n5 -->
<g id="node5" class="node">
<title>n5</title>
<ellipse fill="none" stroke="black" cx="47.85" cy="-738" rx="27" ry="18"/>
<text text-anchor="middle" x="47.85" y="-734.3" font-family="Times,serif" font-size="14.00">n</text>
</g>
<!-- n4&#45;&gt;n5 -->
<g id="edge2" class="edge">
<title>n4&#45;&gt;n5</title>
<path fill="none" stroke="black" d="M117.53,-793.81C104.37,-783.46 86.82,-769.66 72.63,-758.49"/>
<polygon fill="black" stroke="black" points="74.74,-755.7 64.72,-752.27 70.42,-761.21 74.74,-755.7"/>
</g>
<!-- n6 -->
<g id="node6" class="node">
<title>n6</title>
<ellipse fill="none" stroke="black" cx="136.85" cy="-738" rx="43.59" ry="18"/>
<text text-anchor="middle" x="136.85" y="-734.3" font-family="Times,serif" font-size="14.00">Varlist&#39;</text>
</g>
<!-- n4&#45;&gt;n6 -->
<g id="edge6" class="edge">
<title>n4&#45;&gt;n6</title>
<path fill="none" stroke="black" d="M136.85,-791.7C136.85,-783.98 136.85,-774.71 136.85,-766.11"/>
<polygon fill="black" stroke="black" points="140.35,-766.1 136.85,-756.1 133.35,-766.1 140.35,-766.1"/>
</g>
<!-- n7 -->
<g id="node7" class="node">
<title>n7</title>
<ellipse fill="none" stroke="black" cx="58.85" cy="-666" rx="27" ry="18"/>
<text text-anchor="middle" x="58.85" y="-662.3" font-family="Times,serif" font-size="14.00">,</text>
</g>
<!-- n6&#45;&gt;n7 -->
<g id="edge3" class="edge">
<title>n6&#45;&gt;n7</title>
<path fill="none" stroke="black" d="M119.54,-721.46C108.42,-711.49 93.85,-698.41 81.77,-687.58"/>
<polygon fill="black" stroke="black" points="84.04,-684.91 74.26,-680.83 79.36,-690.12 84.04,-684.91"/>
</g>
<!-- n8 -->
<g id="node8" class="node">
<title>n8</title>
<ellipse fill="none" stroke="black" cx="130.85" cy="-666" rx="27" ry="18"/>
<text text-anchor="middle" x="130.85" y="-662.3" font-family="Times,serif" font-size="14.00">m</text>
</g>
<!-- n6&#45;&gt;n8 -->
<g id="edge4" class="edge">
<title>n6&#45;&gt;n8</title>
<path fill="none" stroke="black" d="M135.36,-719.7C134.7,-711.98 133.91,-702.71 133.17,-694.11"/>
<polygon fill="black" stroke="black" points="136.65,-693.77 132.31,-684.1 129.68,-694.37 136.65,-693.77"/>
</g>
<!-- n9 -->
<g id="node9" class="node">
<title>n9</title>
<ellipse fill="none" stroke="black" cx="219.85" cy="-666" rx="43.59" ry="18"/>
<text text-anchor="middle" x="219.85" y="-662.3" font-family="Times,serif" font-size="14.00">Varlist&#39;</text>
</g>
<!-- n6&#45;&gt;n9 -->
<g id="edge5" class="edge">
<title>n6&#45;&gt;n9</title>
<path fill="none" stroke="black" d="M155.27,-721.46C166.55,-711.95 181.17,-699.62 193.65,-689.1"/>
<polygon fill="black" stroke="black" points="196.09,-691.61 201.48,-682.49 191.58,-686.26 196.09,-691.61"/>
</g>
<!-- n12 -->
<g id="node12" class="node">
<title>n12</title>
<ellipse fill="none" stroke="black" cx="429.85" cy="-810" rx="27" ry="18"/>
<text text-anchor="middle" x="429.85" y="-806.3" font-family="Times,serif" font-size="14.00">Tl</text>
</g>
<!-- n11&#45;&gt;n12 -->
<g id="edge23" class="edge">
<title>n11&#45;&gt;n12</title>
<path fill="none" stroke="black" d="M429.85,-863.7C429.85,-855.98 429.85,-846.71 429.85,-838.11"/>
<polygon fill="black" stroke="black" points="433.35,-838.1 429.85,-828.1 426.35,-838.1 433.35,-838.1"/>
</g>
<!-- n26 -->
<g id="node26" class="node">
<title>n26</title>
<ellipse fill="none" stroke="black" cx="663.85" cy="-810" rx="27" ry="18"/>
<text text-anchor="middle" x="663.85" y="-806.3" font-family="Times,serif" font-size="14.00">El&#39;</text>
</g>
<!-- n11&#45;&gt;n26 -->
<g id="edge49" class="edge">
<title>n11&#45;&gt;n26</title>
<path fill="none" stroke="black" d="M454.01,-873.77C495.87,-861.25 581.99,-835.49 629.86,-821.17"/>
<polygon fill="black" stroke="black" points="630.89,-824.51 639.47,-818.29 628.88,-817.81 630.89,-824.51"/>
</g>
<!-- n13 -->
<g id="node13" class="node">
<title>n13</title>
<ellipse fill="none" stroke="black" cx="376.85" cy="-738" rx="62.29" ry="18"/>
<text text-anchor="middle" x="376.85" y="-734.3" font-family="Times,serif" font-size="14.00">Expression</text>
</g>
<!-- n12&#45;&gt;n13 -->
<g id="edge21" class="edge">
<title>n12&#45;&gt;n13</title>
<path fill="none" stroke="black" d="M418.08,-793.46C411.57,-784.87 403.32,-773.97 395.92,-764.19"/>
<polygon fill="black" stroke="black" points="398.52,-761.82 389.69,-755.96 392.93,-766.05 398.52,-761.82"/>
</g>
<!-- n25 -->
<g id="node25" class="node">
<title>n25</title>
<ellipse fill="none" stroke="black" cx="483.85" cy="-738" rx="27" ry="18"/>
<text text-anchor="middle" x="483.85" y="-734.3" font-family="Times,serif" font-size="14.00">Tl&#39;</text>
</g>
<!-- n12&#45;&gt;n25 -->
<g id="edge22" class="edge">
<title>n12&#45;&gt;n25</title>
<path fill="none" stroke="black" d="M441.83,-793.46C448.82,-784.4 457.78,-772.79 465.63,-762.61"/>
<polygon fill="black" stroke="black" points="468.56,-764.55 471.9,-754.49 463.02,-760.27 468.56,-764.55"/>
</g>
<!-- n14 -->
<g id="node14" class="node">
<title>n14</title>
<ellipse fill="none" stroke="black" cx="315.85" cy="-666" rx="34.39" ry="18"/>
<text text-anchor="middle" x="315.85" y="-662.3" font-family="Times,serif" font-size="14.00">Term</text>
</g>
<!-- n13&#45;&gt;n14 -->
<g id="edge13" class="edge">
<title>n13&#45;&gt;n14</title>
<path fill="none" stroke="black" d="M362.39,-720.41C354.68,-711.57 345.07,-700.53 336.58,-690.79"/>
<polygon fill="black" stroke="black" points="338.99,-688.23 329.78,-682.99 333.71,-692.83 338.99,-688.23"/>
</g>
<!-- n18 -->
<g id="node18" class="node">
<title>n18</title>
<ellipse fill="none" stroke="black" cx="454.85" cy="-666" rx="64.99" ry="18"/>
<text text-anchor="middle" x="454.85" y="-662.3" font-family="Times,serif" font-size="14.00">Expression&#39;</text>
</g>
<!-- n13&#45;&gt;n18 -->
<g id="edge20" class="edge">
<title>n13&#45;&gt;n18</title>
<path fill="none" stroke="black" d="M394.94,-720.76C405,-711.73 417.71,-700.33 428.83,-690.35"/>
<polygon fill="black" stroke="black" points="431.48,-692.67 436.58,-683.39 426.8,-687.46 431.48,-692.67"/>
</g>
<!-- n15 -->
<g id="node15" class="node">
<title>n15</title>
<ellipse fill="none" stroke="black" cx="209.85" cy="-594" rx="40.09" ry="18"/>
<text text-anchor="middle" x="209.85" y="-590.3" font-family="Times,serif" font-size="14.00">Factor</text>
</g>
<!-- n14&#45;&gt;n15 -->
<g id="edge11" class="edge">
<title>n14&#45;&gt;n15</title>
<path fill="none" stroke="black" d="M295.41,-651.5C279.83,-641.22 258.14,-626.89 240.49,-615.23"/>
<polygon fill="black" stroke="black" points="241.95,-612.01 231.68,-609.42 238.1,-617.85 241.95,-612.01"/>
</g>
<!-- n17 -->
<g id="node17" class="node">
<title>n17</title>
<ellipse fill="none" stroke="black" cx="304.85" cy="-594" rx="37.09" ry="18"/>
<text text-anchor="middle" x="304.85" y="-590.3" font-family="Times,serif" font-size="14.00">Term&#39;</text>
</g>
<!-- n14&#45;&gt;n17 -->
<g id="edge12" class="edge">
<title>n14&#45;&gt;n17</title>
<path fill="none" stroke="black" d="M313.13,-647.7C311.91,-639.98 310.46,-630.71 309.11,-622.11"/>
<polygon fill="black" stroke="black" points="312.54,-621.44 307.53,-612.1 305.63,-622.53 312.54,-621.44"/>
</g>
<!-- n16 -->
<g id="node16" class="node">
<title>n16</title>
<ellipse fill="none" stroke="black" cx="209.85" cy="-522" rx="27" ry="18"/>
<text text-anchor="middle" x="209.85" y="-518.3" font-family="Times,serif" font-size="14.00">n</text>
</g>
<!-- n15&#45;&gt;n16 -->
<g id="edge10" class="edge">
<title>n15&#45;&gt;n16</title>
<path fill="none" stroke="black" d="M209.85,-575.7C209.85,-567.98 209.85,-558.71 209.85,-550.11"/>
<polygon fill="black" stroke="black" points="213.35,-550.1 209.85,-540.1 206.35,-550.1 213.35,-550.1"/>
</g>
<!-- n19 -->
<g id="node19" class="node">
<title>n19</title>
<ellipse fill="none" stroke="black" cx="386.85" cy="-594" rx="27" ry="18"/>
<text text-anchor="middle" x="386.85" y="-590.3" font-family="Times,serif" font-size="14.00">+</text>
</g>
<!-- n18&#45;&gt;n19 -->
<g id="edge14" class="edge">
<title>n18&#45;&gt;n19</title>
<path fill="none" stroke="black" d="M438.73,-648.41C429.59,-639 418.04,-627.12 408.16,-616.94"/>
<polygon fill="black" stroke="black" points="410.48,-614.3 401,-609.57 405.46,-619.18 410.48,-614.3"/>
</g>
<!-- n20 -->
<g id="node20" class="node">
<title>n20</title>
<ellipse fill="none" stroke="black" cx="465.85" cy="-594" rx="34.39" ry="18"/>
<text text-anchor="middle" x="465.85" y="-590.3" font-family="Times,serif" font-size="14.00">Term</text>
</g>
<!-- n18&#45;&gt;n20 -->
<g id="edge18" class="edge">
<title>n18&#45;&gt;n20</title>
<path fill="none" stroke="black" d="M457.57,-647.7C458.78,-639.98 460.23,-630.71 461.59,-622.11"/>
<polygon fill="black" stroke="black" points="465.06,-622.53 463.16,-612.1 458.15,-621.44 465.06,-622.53"/>
</g>
<!-- n24 -->
<g id="node24" class="node">
<title>n24</title>
<ellipse fill="none" stroke="black" cx="582.85" cy="-594" rx="64.99" ry="18"/>
<text text-anchor="middle" x="582.85" y="-590.3" font-family="Times,serif" font-size="14.00">Expression&#39;</text>
</g>
<!-- n18&#45;&gt;n24 -->
<g id="edge19" class="edge">
<title>n18&#45;&gt;n24</title>
<path fill="none" stroke="black" d="M482.94,-649.64C501.44,-639.52 525.87,-626.16 545.94,-615.18"/>
<polygon fill="black" stroke="black" points="547.73,-618.19 554.82,-610.33 544.37,-612.05 547.73,-618.19"/>
</g>
<!-- n21 -->
<g id="node21" class="node">
<title>n21</title>
<ellipse fill="none" stroke="black" cx="381.85" cy="-522" rx="40.09" ry="18"/>
<text text-anchor="middle" x="381.85" y="-518.3" font-family="Times,serif" font-size="14.00">Factor</text>
</g>
<!-- n20&#45;&gt;n21 -->
<g id="edge16" class="edge">
<title>n20&#45;&gt;n21</title>
<path fill="none" stroke="black" d="M448.03,-578.15C436.39,-568.45 420.98,-555.61 407.96,-544.76"/>
<polygon fill="black" stroke="black" points="410.14,-542.02 400.22,-538.31 405.66,-547.4 410.14,-542.02"/>
</g>
<!-- n23 -->
<g id="node23" class="node">
<title>n23</title>
<ellipse fill="none" stroke="black" cx="476.85" cy="-522" rx="37.09" ry="18"/>
<text text-anchor="middle" x="476.85" y="-518.3" font-family="Times,serif" font-size="14.00">Term&#39;</text>
</g>
<!-- n20&#45;&gt;n23 -->
<g id="edge17" class="edge">
<title>n20&#45;&gt;n23</title>
<path fill="none" stroke="black" d="M468.57,-575.7C469.78,-567.98 471.23,-558.71 472.59,-550.11"/>
<polygon fill="black" stroke="black" points="476.06,-550.53 474.16,-540.1 469.15,-549.44 476.06,-550.53"/>
</g>
<!-- n22 -->
<g id="node22" class="node">
<title>n22</title>
<ellipse fill="none" stroke="black" cx="381.85" cy="-450" rx="27" ry="18"/>
<text text-anchor="middle" x="381.85" y="-446.3" font-family="Times,serif" font-size="14.00">m</text>
</g>
<!-- n21&#45;&gt;n22 -->
<g id="edge15" class="edge">
<title>n21&#45;&gt;n22</title>
<path fill="none" stroke="black" d="M381.85,-503.7C381.85,-495.98 381.85,-486.71 381.85,-478.11"/>
<polygon fill="black" stroke="black" points="385.35,-478.1 381.85,-468.1 378.35,-478.1 385.35,-478.1"/>
</g>
<!-- n27 -->
<g id="node27" class="node">
<title>n27</title>
<ellipse fill="none" stroke="black" cx="627.85" cy="-738" rx="27" ry="18"/>
<text text-anchor="middle" x="627.85" y="-734.3" font-family="Times,serif" font-size="14.00">|</text>
</g>
<!-- n26&#45;&gt;n27 -->
<g id="edge24" class="edge">
<title>n26&#45;&gt;n27</title>
<path fill="none" stroke="black" d="M655.5,-792.76C651.13,-784.28 645.7,-773.71 640.8,-764.2"/>
<polygon fill="black" stroke="black" points="643.84,-762.44 636.15,-755.15 637.61,-765.64 643.84,-762.44"/>
</g>
<!-- n28 -->
<g id="node28" class="node">
<title>n28</title>
<ellipse fill="none" stroke="black" cx="699.85" cy="-738" rx="27" ry="18"/>
<text text-anchor="middle" x="699.85" y="-734.3" font-family="Times,serif" font-size="14.00">Tl</text>
</g>
<!-- n26&#45;&gt;n28 -->
<g id="edge47" class="edge">
<title>n26&#45;&gt;n28</title>
<path fill="none" stroke="black" d="M672.2,-792.76C676.56,-784.28 681.99,-773.71 686.89,-764.2"/>
<polygon fill="black" stroke="black" points="690.08,-765.64 691.54,-755.15 683.86,-762.44 690.08,-765.64"/>
</g>
<!-- n51 -->
<g id="node51" class="node">
<title>n51</title>
<ellipse fill="none" stroke="black" cx="771.85" cy="-738" rx="27" ry="18"/>
<text text-anchor="middle" x="771.85" y="-734.3" font-family="Times,serif" font-size="14.00">El&#39;</text>
</g>
<!-- n26&#45;&gt;n51 -->
<g id="edge48" class="edge">
<title>n26&#45;&gt;n51</title>
<path fill="none" stroke="black" d="M682.66,-796.81C699.85,-785.67 725.46,-769.06 744.84,-756.5"/>
<polygon fill="black" stroke="black" points="746.76,-759.43 753.25,-751.05 742.95,-753.56 746.76,-759.43"/>
</g>
<!-- n29 -->
<g id="node29" class="node">
<title>n29</title>
<ellipse fill="none" stroke="black" cx="699.85" cy="-666" rx="62.29" ry="18"/>
<text text-anchor="middle" x="699.85" y="-662.3" font-family="Times,serif" font-size="14.00">Expression</text>
</g>
<!-- n28&#45;&gt;n29 -->
<g id="edge45" class="edge">
<title>n28&#45;&gt;n29</title>
<path fill="none" stroke="black" d="M699.85,-719.7C699.85,-711.98 699.85,-702.71 699.85,-694.11"/>
<polygon fill="black" stroke="black" points="703.35,-694.1 699.85,-684.1 696.35,-694.1 703.35,-694.1"/>
</g>
<!-- n50 -->
<g id="node50" class="node">
<title>n50</title>
<ellipse fill="none" stroke="black" cx="806.85" cy="-666" rx="27" ry="18"/>
<text text-anchor="middle" x="806.85" y="-662.3" font-family="Times,serif" font-size="14.00">Tl&#39;</text>
</g>
<!-- n28&#45;&gt;n50 -->
<g id="edge46" class="edge">
<title>n28&#45;&gt;n50</title>
<path fill="none" stroke="black" d="M718.48,-724.81C735.33,-713.78 760.36,-697.41 779.48,-684.9"/>
<polygon fill="black" stroke="black" points="781.61,-687.69 788.06,-679.29 777.78,-681.83 781.61,-687.69"/>
</g>
<!-- n30 -->
<g id="node30" class="node">
<title>n30</title>
<ellipse fill="none" stroke="black" cx="699.85" cy="-594" rx="34.39" ry="18"/>
<text text-anchor="middle" x="699.85" y="-590.3" font-family="Times,serif" font-size="14.00">Term</text>
</g>
<!-- n29&#45;&gt;n30 -->
<g id="edge43" class="edge">
<title>n29&#45;&gt;n30</title>
<path fill="none" stroke="black" d="M699.85,-647.7C699.85,-639.98 699.85,-630.71 699.85,-622.11"/>
<polygon fill="black" stroke="black" points="703.35,-622.1 699.85,-612.1 696.35,-622.1 703.35,-622.1"/>
</g>
<!-- n49 -->
<g id="node49" class="node">
<title>n49</title>
<ellipse fill="none" stroke="black" cx="816.85" cy="-594" rx="64.99" ry="18"/>
<text text-anchor="middle" x="816.85" y="-590.3" font-family="Times,serif" font-size="14.00">Expression&#39;</text>
</g>
<!-- n29&#45;&gt;n49 -->
<g id="edge44" class="edge">
<title>n29&#45;&gt;n49</title>
<path fill="none" stroke="black" d="M725.81,-649.46C742.21,-639.66 763.6,-626.85 781.53,-616.13"/>
<polygon fill="black" stroke="black" points="783.76,-618.87 790.55,-610.73 780.17,-612.86 783.76,-618.87"/>
</g>
<!-- n31 -->
<g id="node31" class="node">
<title>n31</title>
<ellipse fill="none" stroke="black" cx="640.85" cy="-522" rx="40.09" ry="18"/>
<text text-anchor="middle" x="640.85" y="-518.3" font-family="Times,serif" font-size="14.00">Factor</text>
</g>
<!-- n30&#45;&gt;n31 -->
<g id="edge26" class="edge">
<title>n30&#45;&gt;n31</title>
<path fill="none" stroke="black" d="M686.46,-577.12C679.02,-568.29 669.61,-557.13 661.28,-547.24"/>
<polygon fill="black" stroke="black" points="663.71,-544.7 654.59,-539.31 658.36,-549.21 663.71,-544.7"/>
</g>
<!-- n33 -->
<g id="node33" class="node">
<title>n33</title>
<ellipse fill="none" stroke="black" cx="757.85" cy="-522" rx="37.09" ry="18"/>
<text text-anchor="middle" x="757.85" y="-518.3" font-family="Times,serif" font-size="14.00">Term&#39;</text>
</g>
<!-- n30&#45;&gt;n33 -->
<g id="edge42" class="edge">
<title>n30&#45;&gt;n33</title>
<path fill="none" stroke="black" d="M713.01,-577.12C720.32,-568.29 729.57,-557.13 737.76,-547.24"/>
<polygon fill="black" stroke="black" points="740.65,-549.24 744.33,-539.31 735.26,-544.77 740.65,-549.24"/>
</g>
<!-- n32 -->
<g id="node32" class="node">
<title>n32</title>
<ellipse fill="none" stroke="black" cx="620.85" cy="-450" rx="27" ry="18"/>
<text text-anchor="middle" x="620.85" y="-446.3" font-family="Times,serif" font-size="14.00">42</text>
</g>
<!-- n31&#45;&gt;n32 -->
<g id="edge25" class="edge">
<title>n31&#45;&gt;n32</title>
<path fill="none" stroke="black" d="M636,-504.05C633.74,-496.14 631,-486.54 628.47,-477.69"/>
<polygon fill="black" stroke="black" points="631.76,-476.44 625.64,-467.79 625.02,-478.37 631.76,-476.44"/>
</g>
<!-- n34 -->
<g id="node34" class="node">
<title>n34</title>
<ellipse fill="none" stroke="black" cx="692.85" cy="-450" rx="27" ry="18"/>
<text text-anchor="middle" x="692.85" y="-446.3" font-family="Times,serif" font-size="14.00">*</text>
</g>
<!-- n33&#45;&gt;n34 -->
<g id="edge27" class="edge">
<title>n33&#45;&gt;n34</title>
<path fill="none" stroke="black" d="M743.1,-505.12C734.38,-495.73 723.21,-483.7 713.61,-473.36"/>
<polygon fill="black" stroke="black" points="716.02,-470.81 706.65,-465.86 710.89,-475.57 716.02,-470.81"/>
</g>
<!-- n35 -->
<g id="node35" class="node">
<title>n35</title>
<ellipse fill="none" stroke="black" cx="777.85" cy="-450" rx="40.09" ry="18"/>
<text text-anchor="middle" x="777.85" y="-446.3" font-family="Times,serif" font-size="14.00">Factor</text>
</g>
<!-- n33&#45;&gt;n35 -->
<g id="edge40" class="edge">
<title>n33&#45;&gt;n35</title>
<path fill="none" stroke="black" d="M762.69,-504.05C764.91,-496.26 767.61,-486.82 770.11,-478.08"/>
<polygon fill="black" stroke="black" points="773.53,-478.85 772.91,-468.28 766.8,-476.93 773.53,-478.85"/>
</g>
<!-- n48 -->
<g id="node48" class="node">
<title>n48</title>
<ellipse fill="none" stroke="black" cx="872.85" cy="-450" rx="37.09" ry="18"/>
<text text-anchor="middle" x="872.85" y="-446.3" font-family="Times,serif" font-size="14.00">Term&#39;</text>
</g>
<!-- n33&#45;&gt;n48 -->
<g id="edge41" class="edge">
<title>n33&#45;&gt;n48</title>
<path fill="none" stroke="black" d="M780.02,-507.5C797.68,-496.75 822.6,-481.59 842.17,-469.67"/>
<polygon fill="black" stroke="black" points="844.02,-472.64 850.74,-464.46 840.38,-466.67 844.02,-472.64"/>
</g>
<!-- n36 -->
<g id="node36" class="node">
<title>n36</title>
<ellipse fill="none" stroke="black" cx="705.85" cy="-378" rx="27" ry="18"/>
<text text-anchor="middle" x="705.85" y="-374.3" font-family="Times,serif" font-size="14.00">(</text>
</g>
<!-- n35&#45;&gt;n36 -->
<g id="edge28" class="edge">
<title>n35&#45;&gt;n36</title>
<path fill="none" stroke="black" d="M761.87,-433.46C751.9,-423.78 738.94,-411.17 727.99,-400.53"/>
<polygon fill="black" stroke="black" points="730.41,-398 720.8,-393.54 725.53,-403.02 730.41,-398"/>
</g>
<!-- n37 -->
<g id="node37" class="node">
<title>n37</title>
<ellipse fill="none" stroke="black" cx="777.85" cy="-378" rx="27" ry="18"/>
<text text-anchor="middle" x="777.85" y="-374.3" font-family="Times,serif" font-size="14.00">El</text>
</g>
<!-- n35&#45;&gt;n37 -->
<g id="edge38" class="edge">
<title>n35&#45;&gt;n37</title>
<path fill="none" stroke="black" d="M777.85,-431.7C777.85,-423.98 777.85,-414.71 777.85,-406.11"/>
<polygon fill="black" stroke="black" points="781.35,-406.1 777.85,-396.1 774.35,-406.1 781.35,-406.1"/>
</g>
<!-- n47 -->
<g id="node47" class="node">
<title>n47</title>
<ellipse fill="none" stroke="black" cx="849.85" cy="-378" rx="27" ry="18"/>
<text text-anchor="middle" x="849.85" y="-374.3" font-family="Times,serif" font-size="14.00">)</text>
</g>
<!-- n35&#45;&gt;n47 -->
<g id="edge39" class="edge">
<title>n35&#45;&gt;n47</title>
<path fill="none" stroke="black" d="M793.83,-433.46C803.79,-423.78 816.75,-411.17 827.7,-400.53"/>
<polygon fill="black" stroke="black" points="830.16,-403.02 834.89,-393.54 825.29,-398 830.16,-403.02"/>
</g>
<!-- n38 -->
<g id="node38" class="node">
<title>n38</title>
<ellipse fill="none" stroke="black" cx="741.85" cy="-306" rx="27" ry="18"/>
<text text-anchor="middle" x="741.85" y="-302.3" font-family="Times,serif" font-size="14.00">Tl</text>
</g>
<!-- n37&#45;&gt;n38 -->
<g id="edge36" class="edge">
<title>n37&#45;&gt;n38</title>
<path fill="none" stroke="black" d="M769.5,-360.76C765.13,-352.28 759.7,-341.71 754.8,-332.2"/>
<polygon fill="black" stroke="black" points="757.84,-330.44 750.15,-323.15 751.61,-333.64 757.84,-330.44"/>
</g>
<!-- n46 -->
<g id="node46" class="node">
<title>n46</title>
<ellipse fill="none" stroke="black" cx="813.85" cy="-306" rx="27" ry="18"/>
<text text-anchor="middle" x="813.85" y="-302.3" font-family="Times,serif" font-size="14.00">El&#39;</text>
</g>
<!-- n37&#45;&gt;n46 -->
<g id="edge37" class="edge">
<title>n37&#45;&gt;n46</title>
<path fill="none" stroke="black" d="M786.2,-360.76C790.56,-352.28 795.99,-341.71 800.89,-332.2"/>
<polygon fill="black" stroke="black" points="804.08,-333.64 805.54,-323.15 797.86,-330.44 804.08,-333.64"/>
</g>
<!-- n39 -->
<g id="node39" class="node">
<title>n39</title>
<ellipse fill="none" stroke="black" cx="688.85" cy="-234" rx="62.29" ry="18"/>
<text text-anchor="middle" x="688.85" y="-230.3" font-family="Times,serif" font-size="14.00">Expression</text>
</g>
<!-- n38&#45;&gt;n39 -->
<g id="edge34" class="edge">
<title>n38&#45;&gt;n39</title>
<path fill="none" stroke="black" d="M730.08,-289.46C723.57,-280.87 715.32,-269.97 707.92,-260.19"/>
<polygon fill="black" stroke="black" points="710.52,-257.82 701.69,-251.96 704.93,-262.05 710.52,-257.82"/>
</g>
<!-- n45 -->
<g id="node45" class="node">
<title>n45</title>
<ellipse fill="none" stroke="black" cx="795.85" cy="-234" rx="27" ry="18"/>
<text text-anchor="middle" x="795.85" y="-230.3" font-family="Times,serif" font-size="14.00">Tl&#39;</text>
</g>
<!-- n38&#45;&gt;n45 -->
<g id="edge35" class="edge">
<title>n38&#45;&gt;n45</title>
<path fill="none" stroke="black" d="M753.83,-289.46C760.82,-280.4 769.78,-268.79 777.63,-258.61"/>
<polygon fill="black" stroke="black" points="780.56,-260.55 783.9,-250.49 775.02,-256.27 780.56,-260.55"/>
</g>
<!-- n40 -->
<g id="node40" class="node">
<title>n40</title>
<ellipse fill="none" stroke="black" cx="630.85" cy="-162" rx="34.39" ry="18"/>
<text text-anchor="middle" x="630.85" y="-158.3" font-family="Times,serif" font-size="14.00">Term</text>
</g>
<!-- n39&#45;&gt;n40 -->
<g id="edge32" class="edge">
<title>n39&#45;&gt;n40</title>
<path fill="none" stroke="black" d="M675.1,-216.41C667.77,-207.57 658.63,-196.53 650.56,-186.79"/>
<polygon fill="black" stroke="black" points="653.17,-184.46 644.09,-178.99 647.78,-188.92 653.17,-184.46"/>
</g>
<!-- n44 -->
<g id="node44" class="node">
<title>n44</title>
<ellipse fill="none" stroke="black" cx="747.85" cy="-162" rx="64.99" ry="18"/>
<text text-anchor="middle" x="747.85" y="-158.3" font-family="Times,serif" font-size="14.00">Expression&#39;</text>
</g>
<!-- n39&#45;&gt;n44 -->
<g id="edge33" class="edge">
<title>n39&#45;&gt;n44</title>
<path fill="none" stroke="black" d="M702.83,-216.41C710.07,-207.82 719.05,-197.16 727.09,-187.63"/>
<polygon fill="black" stroke="black" points="729.79,-189.86 733.55,-179.96 724.43,-185.35 729.79,-189.86"/>
</g>
<!-- n41 -->
<g id="node41" class="node">
<title>n41</title>
<ellipse fill="none" stroke="black" cx="583.85" cy="-90" rx="40.09" ry="18"/>
<text text-anchor="middle" x="583.85" y="-86.3" font-family="Times,serif" font-size="14.00">Factor</text>
</g>
<!-- n40&#45;&gt;n41 -->
<g id="edge30" class="edge">
<title>n40&#45;&gt;n41</title>
<path fill="none" stroke="black" d="M619.95,-144.76C614.21,-136.23 607.07,-125.58 600.64,-116.02"/>
<polygon fill="black" stroke="black" points="603.49,-113.98 595.01,-107.63 597.68,-117.89 603.49,-113.98"/>
</g>
<!-- n43 -->
<g id="node43" class="node">
<title>n43</title>
<ellipse fill="none" stroke="black" cx="678.85" cy="-90" rx="37.09" ry="18"/>
<text text-anchor="middle" x="678.85" y="-86.3" font-family="Times,serif" font-size="14.00">Term&#39;</text>
</g>
<!-- n40&#45;&gt;n43 -->
<g id="edge31" class="edge">
<title>n40&#45;&gt;n43</title>
<path fill="none" stroke="black" d="M641.98,-144.76C647.83,-136.23 655.13,-125.58 661.69,-116.02"/>
<polygon fill="black" stroke="black" points="664.67,-117.86 667.44,-107.63 658.9,-113.9 664.67,-117.86"/>
</g>
<!-- n42 -->
<g id="node42" class="node">
<title>n42</title>
<ellipse fill="none" stroke="black" cx="583.85" cy="-18" rx="27" ry="18"/>
<text text-anchor="middle" x="583.85" y="-14.3" font-family="Times,serif" font-size="14.00">n</text>
</g>
<!-- n41&#45;&gt;n42 -->
<g id="edge29" class="edge">
<title>n41&#45;&gt;n42</title>
<path fill="none" stroke="black" d="M583.85,-71.7C583.85,-63.98 583.85,-54.71 583.85,-46.11"/>
<polygon fill="black" stroke="black" points="587.35,-46.1 583.85,-36.1 580.35,-46.1 587.35,-46.1"/>
</g>
</g>
</svg>
