<?xml version="1.0" encoding="UTF-8" standalone="no"?>
<!DOCTYPE svg PUBLIC "-//W3C//DTD SVG 1.1//EN"
 "http://www.w3.org/Graphics/SVG/1.1/DTD/svg11.dtd">
<!-- Generated by graphviz version 2.43.0 (0)
 -->
<!-- Title: %3 Pages: 1 -->
<svg width="735pt" height="404pt"
 viewBox="0.00 0.00 734.84 404.00" xmlns="http://www.w3.org/2000/svg" xmlns:xlink="http://www.w3.org/1999/xlink">
<g id="graph0" class="graph" transform="scale(1 1) rotate(0) translate(4 400)">
<title>%3</title>
<polygon fill="white" stroke="transparent" points="-4,4 -4,-400 730.84,-400 730.84,4 -4,4"/>
<!-- n1 -->
<g id="node1" class="node">
<title>n1</title>
<ellipse fill="none" stroke="black" cx="192.85" cy="-378" rx="64.19" ry="18"/>
<text text-anchor="middle" x="192.85" y="-374.3" font-family="Times,serif" font-size="14.00">Declaration</text>
</g>
<!-- n2 -->
<g id="node2" class="node">
<title>n2</title>
<ellipse fill="none" stroke="black" cx="44.85" cy="-306" rx="44.69" ry="18"/>
<text text-anchor="middle" x="44.85" y="-302.3" font-family="Times,serif" font-size="14.00">lambda</text>
</g>
<!-- n1&#45;&gt;n2 -->
<g id="edge1" class="edge">
<title>n1&#45;&gt;n2</title>
<path fill="none" stroke="black" d="M161.46,-362.15C138.24,-351.17 106.52,-336.17 82.03,-324.59"/>
<polygon fill="black" stroke="black" points="83.23,-321.28 72.69,-320.17 80.24,-327.61 83.23,-321.28"/>
</g>
<!-- n3 -->
<g id="node3" class="node">
<title>n3</title>
<ellipse fill="none" stroke="black" cx="149.85" cy="-306" rx="42.49" ry="18"/>
<text text-anchor="middle" x="149.85" y="-302.3" font-family="Times,serif" font-size="14.00">Arglist</text>
</g>
<!-- n1&#45;&gt;n3 -->
<g id="edge8" class="edge">
<title>n1&#45;&gt;n3</title>
<path fill="none" stroke="black" d="M182.44,-360.05C177.37,-351.8 171.16,-341.7 165.53,-332.54"/>
<polygon fill="black" stroke="black" points="168.38,-330.48 160.16,-323.79 162.41,-334.14 168.38,-330.48"/>
</g>
<!-- n10 -->
<g id="node10" class="node">
<title>n10</title>
<ellipse fill="none" stroke="black" cx="236.85" cy="-306" rx="27" ry="18"/>
<text text-anchor="middle" x="236.85" y="-302.3" font-family="Times,serif" font-size="14.00">:</text>
</g>
<!-- n1&#45;&gt;n10 -->
<g id="edge9" class="edge">
<title>n1&#45;&gt;n10</title>
<path fill="none" stroke="black" d="M203.5,-360.05C208.89,-351.47 215.55,-340.89 221.48,-331.44"/>
<polygon fill="black" stroke="black" points="224.54,-333.16 226.9,-322.83 218.61,-329.43 224.54,-333.16"/>
</g>
<!-- n11 -->
<g id="node11" class="node">
<title>n11</title>
<ellipse fill="none" stroke="black" cx="354.85" cy="-306" rx="62.29" ry="18"/>
<text text-anchor="middle" x="354.85" y="-302.3" font-family="Times,serif" font-size="14.00">Expression</text>
</g>
<!-- n1&#45;&gt;n11 -->
<g id="edge21" class="edge">
<title>n1&#45;&gt;n11</title>
<path fill="none" stroke="black" d="M226.41,-362.5C251.26,-351.76 285.29,-337.05 312.09,-325.48"/>
<polygon fill="black" stroke="black" points="313.81,-328.55 321.6,-321.37 311.03,-322.12 313.81,-328.55"/>
</g>
<!-- n4 -->
<g id="node4" class="node">
<title>n4</title>
<ellipse fill="none" stroke="black" cx="144.85" cy="-234" rx="40.89" ry="18"/>
<text text-anchor="middle" x="144.85" y="-230.3" font-family="Times,serif" font-size="14.00">Varlist</text>
</g>
<!-- n3&#45;&gt;n4 -->
<g id="edge7" class="edge">
<title>n3&#45;&gt;n4</title>
<path fill="none" stroke="black" d="M148.61,-287.7C148.06,-279.98 147.4,-270.71 146.78,-262.11"/>
<polygon fill="black" stroke="black" points="150.27,-261.83 146.07,-252.1 143.29,-262.33 150.27,-261.83"/>
</g>
<!-- n5 -->
<g id="node5" class="node">
<title>n5</title>
<ellipse fill="none" stroke="black" cx="55.85" cy="-162" rx="27" ry="18"/>
<text text-anchor="middle" x="55.85" y="-158.3" font-family="Times,serif" font-size="14.00">n</text>
</g>
<!-- n4&#45;&gt;n5 -->
<g id="edge2" class="edge">
<title>n4&#45;&gt;n5</title>
<path fill="none" stroke="black" d="M125.53,-217.81C112.37,-207.46 94.82,-193.66 80.63,-182.49"/>
<polygon fill="black" stroke="black" points="82.74,-179.7 72.72,-176.27 78.42,-185.21 82.74,-179.7"/>
</g>
<!-- n6 -->
<g id="node6" class="node">
<title>n6</title>
<ellipse fill="none" stroke="black" cx="144.85" cy="-162" rx="43.59" ry="18"/>
<text text-anchor="middle" x="144.85" y="-158.3" font-family="Times,serif" font-size="14.00">Varlist&#39;</text>
</g>
<!-- n4&#45;&gt;n6 -->
<g id="edge6" class="edge">
<title>n4&#45;&gt;n6</title>
<path fill="none" stroke="black" d="M144.85,-215.7C144.85,-207.98 144.85,-198.71 144.85,-190.11"/>
<polygon fill="black" stroke="black" points="148.35,-190.1 144.85,-180.1 141.35,-190.1 148.35,-190.1"/>
</g>
<!-- n7 -->
<g id="node7" class="node">
<title>n7</title>
<ellipse fill="none" stroke="black" cx="69.85" cy="-90" rx="27" ry="18"/>
<text text-anchor="middle" x="69.85" y="-86.3" font-family="Times,serif" font-size="14.00">,</text>
</g>
<!-- n6&#45;&gt;n7 -->
<g id="edge3" class="edge">
<title>n6&#45;&gt;n7</title>
<path fill="none" stroke="black" d="M127.83,-145.12C117.43,-135.41 104.01,-122.89 92.7,-112.33"/>
<polygon fill="black" stroke="black" points="94.97,-109.66 85.27,-105.39 90.19,-114.77 94.97,-109.66"/>
</g>
<!-- n8 -->
<g id="node8" class="node">
<title>n8</title>
<ellipse fill="none" stroke="black" cx="141.85" cy="-90" rx="27" ry="18"/>
<text text-anchor="middle" x="141.85" y="-86.3" font-family="Times,serif" font-size="14.00">m</text>
</g>
<!-- n6&#45;&gt;n8 -->
<g id="edge4" class="edge">
<title>n6&#45;&gt;n8</title>
<path fill="none" stroke="black" d="M144.1,-143.7C143.77,-135.98 143.38,-126.71 143.01,-118.11"/>
<polygon fill="black" stroke="black" points="146.5,-117.95 142.58,-108.1 139.51,-118.25 146.5,-117.95"/>
</g>
<!-- n9 -->
<g id="node9" class="node">
<title>n9</title>
<ellipse fill="none" stroke="black" cx="230.85" cy="-90" rx="43.59" ry="18"/>
<text text-anchor="middle" x="230.85" y="-86.3" font-family="Times,serif" font-size="14.00">Varlist&#39;</text>
</g>
<!-- n6&#45;&gt;n9 -->
<g id="edge5" class="edge">
<title>n6&#45;&gt;n9</title>
<path fill="none" stroke="black" d="M163.93,-145.46C175.82,-135.79 191.27,-123.21 204.34,-112.58"/>
<polygon fill="black" stroke="black" points="206.56,-115.28 212.11,-106.25 202.14,-109.85 206.56,-115.28"/>
</g>
<!-- n12 -->
<g id="node12" class="node">
<title>n12</title>
<ellipse fill="none" stroke="black" cx="354.85" cy="-234" rx="34.39" ry="18"/>
<text text-anchor="middle" x="354.85" y="-230.3" font-family="Times,serif" font-size="14.00">Term</text>
</g>
<!-- n11&#45;&gt;n12 -->
<g id="edge13" class="edge">
<title>n11&#45;&gt;n12</title>
<path fill="none" stroke="black" d="M354.85,-287.7C354.85,-279.98 354.85,-270.71 354.85,-262.11"/>
<polygon fill="black" stroke="black" points="358.35,-262.1 354.85,-252.1 351.35,-262.1 358.35,-262.1"/>
</g>
<!-- n16 -->
<g id="node16" class="node">
<title>n16</title>
<ellipse fill="none" stroke="black" cx="493.85" cy="-234" rx="64.99" ry="18"/>
<text text-anchor="middle" x="493.85" y="-230.3" font-family="Times,serif" font-size="14.00">Expression&#39;</text>
</g>
<!-- n11&#45;&gt;n16 -->
<g id="edge20" class="edge">
<title>n11&#45;&gt;n16</title>
<path fill="none" stroke="black" d="M384.67,-289.98C405.05,-279.72 432.28,-266.01 454.44,-254.84"/>
<polygon fill="black" stroke="black" points="456.24,-257.86 463.6,-250.23 453.09,-251.61 456.24,-257.86"/>
</g>
<!-- n13 -->
<g id="node13" class="node">
<title>n13</title>
<ellipse fill="none" stroke="black" cx="288.85" cy="-162" rx="40.09" ry="18"/>
<text text-anchor="middle" x="288.85" y="-158.3" font-family="Times,serif" font-size="14.00">Factor</text>
</g>
<!-- n12&#45;&gt;n13 -->
<g id="edge11" class="edge">
<title>n12&#45;&gt;n13</title>
<path fill="none" stroke="black" d="M340.2,-217.46C331.6,-208.35 320.57,-196.65 310.94,-186.43"/>
<polygon fill="black" stroke="black" points="313.32,-183.85 303.91,-178.98 308.22,-188.65 313.32,-183.85"/>
</g>
<!-- n15 -->
<g id="node15" class="node">
<title>n15</title>
<ellipse fill="none" stroke="black" cx="383.85" cy="-162" rx="37.09" ry="18"/>
<text text-anchor="middle" x="383.85" y="-158.3" font-family="Times,serif" font-size="14.00">Term&#39;</text>
</g>
<!-- n12&#45;&gt;n15 -->
<g id="edge12" class="edge">
<title>n12&#45;&gt;n15</title>
<path fill="none" stroke="black" d="M361.87,-216.05C365.21,-207.97 369.3,-198.12 373.03,-189.11"/>
<polygon fill="black" stroke="black" points="376.3,-190.37 376.89,-179.79 369.83,-187.69 376.3,-190.37"/>
</g>
<!-- n14 -->
<g id="node14" class="node">
<title>n14</title>
<ellipse fill="none" stroke="black" cx="319.85" cy="-90" rx="27" ry="18"/>
<text text-anchor="middle" x="319.85" y="-86.3" font-family="Times,serif" font-size="14.00">n</text>
</g>
<!-- n13&#45;&gt;n14 -->
<g id="edge10" class="edge">
<title>n13&#45;&gt;n14</title>
<path fill="none" stroke="black" d="M296.35,-144.05C299.93,-135.97 304.29,-126.12 308.28,-117.11"/>
<polygon fill="black" stroke="black" points="311.56,-118.35 312.41,-107.79 305.16,-115.52 311.56,-118.35"/>
</g>
<!-- n17 -->
<g id="node17" class="node">
<title>n17</title>
<ellipse fill="none" stroke="black" cx="465.85" cy="-162" rx="27" ry="18"/>
<text text-anchor="middle" x="465.85" y="-158.3" font-family="Times,serif" font-size="14.00">+</text>
</g>
<!-- n16&#45;&gt;n17 -->
<g id="edge14" class="edge">
<title>n16&#45;&gt;n17</title>
<path fill="none" stroke="black" d="M487.07,-216.05C483.84,-207.97 479.89,-198.12 476.29,-189.11"/>
<polygon fill="black" stroke="black" points="479.53,-187.77 472.56,-179.79 473.03,-190.37 479.53,-187.77"/>
</g>
<!-- n18 -->
<g id="node18" class="node">
<title>n18</title>
<ellipse fill="none" stroke="black" cx="544.85" cy="-162" rx="34.39" ry="18"/>
<text text-anchor="middle" x="544.85" y="-158.3" font-family="Times,serif" font-size="14.00">Term</text>
</g>
<!-- n16&#45;&gt;n18 -->
<g id="edge18" class="edge">
<title>n16&#45;&gt;n18</title>
<path fill="none" stroke="black" d="M506.19,-216.05C512.42,-207.5 520.09,-196.97 526.96,-187.56"/>
<polygon fill="black" stroke="black" points="529.91,-189.45 532.97,-179.31 524.25,-185.33 529.91,-189.45"/>
</g>
<!-- n22 -->
<g id="node22" class="node">
<title>n22</title>
<ellipse fill="none" stroke="black" cx="661.85" cy="-162" rx="64.99" ry="18"/>
<text text-anchor="middle" x="661.85" y="-158.3" font-family="Times,serif" font-size="14.00">Expression&#39;</text>
</g>
<!-- n16&#45;&gt;n22 -->
<g id="edge19" class="edge">
<title>n16&#45;&gt;n22</title>
<path fill="none" stroke="black" d="M528.25,-218.67C554.18,-207.86 589.94,-192.96 617.94,-181.29"/>
<polygon fill="black" stroke="black" points="619.6,-184.39 627.49,-177.32 616.91,-177.93 619.6,-184.39"/>
</g>
<!-- n19 -->
<g id="node19" class="node">
<title>n19</title>
<ellipse fill="none" stroke="black" cx="496.85" cy="-90" rx="40.09" ry="18"/>
<text text-anchor="middle" x="496.85" y="-86.3" font-family="Times,serif" font-size="14.00">Factor</text>
</g>
<!-- n18&#45;&gt;n19 -->
<g id="edge16" class="edge">
<title>n18&#45;&gt;n19</title>
<path fill="none" stroke="black" d="M533.71,-144.76C527.86,-136.23 520.56,-125.58 514,-116.02"/>
<polygon fill="black" stroke="black" points="516.79,-113.9 508.25,-107.63 511.02,-117.86 516.79,-113.9"/>
</g>
<!-- n21 -->
<g id="node21" class="node">
<title>n21</title>
<ellipse fill="none" stroke="black" cx="591.85" cy="-90" rx="37.09" ry="18"/>
<text text-anchor="middle" x="591.85" y="-86.3" font-family="Times,serif" font-size="14.00">Term&#39;</text>
</g>
<!-- n18&#45;&gt;n21 -->
<g id="edge17" class="edge">
<title>n18&#45;&gt;n21</title>
<path fill="none" stroke="black" d="M555.75,-144.76C561.48,-136.23 568.63,-125.58 575.05,-116.02"/>
<polygon fill="black" stroke="black" points="578.01,-117.89 580.68,-107.63 572.2,-113.98 578.01,-117.89"/>
</g>
<!-- n20 -->
<g id="node20" class="node">
<title>n20</title>
<ellipse fill="none" stroke="black" cx="496.85" cy="-18" rx="27" ry="18"/>
<text text-anchor="middle" x="496.85" y="-14.3" font-family="Times,serif" font-size="14.00">m</text>
</g>
<!-- n19&#45;&gt;n20 -->
<g id="edge15" class="edge">
<title>n19&#45;&gt;n20</title>
<path fill="none" stroke="black" d="M496.85,-71.7C496.85,-63.98 496.85,-54.71 496.85,-46.11"/>
<polygon fill="black" stroke="black" points="500.35,-46.1 496.85,-36.1 493.35,-46.1 500.35,-46.1"/>
</g>
</g>
</svg>
