<?xml version="1.0" encoding="UTF-8" standalone="no"?>
<!DOCTYPE svg PUBLIC "-//W3C//DTD SVG 1.1//EN"
 "http://www.w3.org/Graphics/SVG/1.1/DTD/svg11.dtd">
<!-- Generated by graphviz version 2.43.0 (0)
 -->
<!-- Title: %3 Pages: 1 -->
<svg width="775pt" height="1124pt"
 viewBox="0.00 0.00 774.89 1124.00" xmlns="http://www.w3.org/2000/svg" xmlns:xlink="http://www.w3.org/1999/xlink">
<g id="graph0" class="graph" transform="scale(1 1) rotate(0) translate(4 1120)">
<title>%3</title>
<polygon fill="white" stroke="transparent" points="-4,4 -4,-1120 770.89,-1120 770.89,4 -4,4"/>
<!-- n1 -->
<g id="node1" class="node">
<title>n1</title>
<ellipse fill="none" stroke="black" cx="192.85" cy="-1098" rx="64.19" ry="18"/>
<text text-anchor="middle" x="192.85" y="-1094.3" font-family="Times,serif" font-size="14.00">Declaration</text>
</g>
<!-- n2 -->
<g id="node2" class="node">
<title>n2</title>
<ellipse fill="none" stroke="black" cx="44.85" cy="-1026" rx="44.69" ry="18"/>
<text text-anchor="middle" x="44.85" y="-1022.3" font-family="Times,serif" font-size="14.00">lambda</text>
</g>
<!-- n1&#45;&gt;n2 -->
<g id="edge1" class="edge">
<title>n1&#45;&gt;n2</title>
<path fill="none" stroke="black" d="M161.46,-1082.15C138.24,-1071.17 106.52,-1056.17 82.03,-1044.59"/>
<polygon fill="black" stroke="black" points="83.23,-1041.28 72.69,-1040.17 80.24,-1047.61 83.23,-1041.28"/>
</g>
<!-- n3 -->
<g id="node3" class="node">
<title>n3</title>
<ellipse fill="none" stroke="black" cx="149.85" cy="-1026" rx="42.49" ry="18"/>
<text text-anchor="middle" x="149.85" y="-1022.3" font-family="Times,serif" font-size="14.00">Arglist</text>
</g>
<!-- n1&#45;&gt;n3 -->
<g id="edge8" class="edge">
<title>n1&#45;&gt;n3</title>
<path fill="none" stroke="black" d="M182.44,-1080.05C177.37,-1071.8 171.16,-1061.7 165.53,-1052.54"/>
<polygon fill="black" stroke="black" points="168.38,-1050.48 160.16,-1043.79 162.41,-1054.14 168.38,-1050.48"/>
</g>
<!-- n10 -->
<g id="node10" class="node">
<title>n10</title>
<ellipse fill="none" stroke="black" cx="236.85" cy="-1026" rx="27" ry="18"/>
<text text-anchor="middle" x="236.85" y="-1022.3" font-family="Times,serif" font-size="14.00">:</text>
</g>
<!-- n1&#45;&gt;n10 -->
<g id="edge9" class="edge">
<title>n1&#45;&gt;n10</title>
<path fill="none" stroke="black" d="M203.5,-1080.05C208.89,-1071.47 215.55,-1060.89 221.48,-1051.44"/>
<polygon fill="black" stroke="black" points="224.54,-1053.16 226.9,-1042.83 218.61,-1049.43 224.54,-1053.16"/>
</g>
<!-- n11 -->
<g id="node11" class="node">
<title>n11</title>
<ellipse fill="none" stroke="black" cx="358.85" cy="-1026" rx="27" ry="18"/>
<text text-anchor="middle" x="358.85" y="-1022.3" font-family="Times,serif" font-size="14.00">El</text>
</g>
<!-- n1&#45;&gt;n11 -->
<g id="edge54" class="edge">
<title>n1&#45;&gt;n11</title>
<path fill="none" stroke="black" d="M226.84,-1082.67C256.2,-1070.29 298.3,-1052.53 327.01,-1040.42"/>
<polygon fill="black" stroke="black" points="328.71,-1043.51 336.56,-1036.4 325.99,-1037.06 328.71,-1043.51"/>
</g>
<!-- n4 -->
<g id="node4" class="node">
<title>n4</title>
<ellipse fill="none" stroke="black" cx="122.85" cy="-954" rx="40.89" ry="18"/>
<text text-anchor="middle" x="122.85" y="-950.3" font-family="Times,serif" font-size="14.00">Varlist</text>
</g>
<!-- n3&#45;&gt;n4 -->
<g id="edge7" class="edge">
<title>n3&#45;&gt;n4</title>
<path fill="none" stroke="black" d="M143.31,-1008.05C140.23,-1000.06 136.47,-990.33 133.03,-981.4"/>
<polygon fill="black" stroke="black" points="136.19,-979.86 129.32,-971.79 129.66,-982.38 136.19,-979.86"/>
</g>
<!-- n5 -->
<g id="node5" class="node">
<title>n5</title>
<ellipse fill="none" stroke="black" cx="33.85" cy="-882" rx="27" ry="18"/>
<text text-anchor="middle" x="33.85" y="-878.3" font-family="Times,serif" font-size="14.00">n</text>
</g>
<!-- n4&#45;&gt;n5 -->
<g id="edge2" class="edge">
<title>n4&#45;&gt;n5</title>
<path fill="none" stroke="black" d="M103.53,-937.81C90.37,-927.46 72.82,-913.66 58.63,-902.49"/>
<polygon fill="black" stroke="black" points="60.74,-899.7 50.72,-896.27 56.42,-905.21 60.74,-899.7"/>
</g>
<!-- n6 -->
<g id="node6" class="node">
<title>n6</title>
<ellipse fill="none" stroke="black" cx="122.85" cy="-882" rx="43.59" ry="18"/>
<text text-anchor="middle" x="122.85" y="-878.3" font-family="Times,serif" font-size="14.00">Varlist&#39;</text>
</g>
<!-- n4&#45;&gt;n6 -->
<g id="edge6" class="edge">
<title>n4&#45;&gt;n6</title>
<path fill="none" stroke="black" d="M122.85,-935.7C122.85,-927.98 122.85,-918.71 122.85,-910.11"/>
<polygon fill="black" stroke="black" points="126.35,-910.1 122.85,-900.1 119.35,-910.1 126.35,-910.1"/>
</g>
<!-- n7 -->
<g id="node7" class="node">
<title>n7</title>
<ellipse fill="none" stroke="black" cx="37.85" cy="-810" rx="27" ry="18"/>
<text text-anchor="middle" x="37.85" y="-806.3" font-family="Times,serif" font-size="14.00">,</text>
</g>
<!-- n6&#45;&gt;n7 -->
<g id="edge3" class="edge">
<title>n6&#45;&gt;n7</title>
<path fill="none" stroke="black" d="M103.98,-865.46C91.67,-855.32 75.47,-841.99 62.19,-831.05"/>
<polygon fill="black" stroke="black" points="64.31,-828.26 54.36,-824.6 59.86,-833.66 64.31,-828.26"/>
</g>
<!-- n8 -->
<g id="node8" class="node">
<title>n8</title>
<ellipse fill="none" stroke="black" cx="109.85" cy="-810" rx="27" ry="18"/>
<text text-anchor="middle" x="109.85" y="-806.3" font-family="Times,serif" font-size="14.00">m</text>
</g>
<!-- n6&#45;&gt;n8 -->
<g id="edge4" class="edge">
<title>n6&#45;&gt;n8</title>
<path fill="none" stroke="black" d="M119.63,-863.7C118.2,-855.98 116.48,-846.71 114.88,-838.11"/>
<polygon fill="black" stroke="black" points="118.29,-837.3 113.02,-828.1 111.41,-838.58 118.29,-837.3"/>
</g>
<!-- n9 -->
<g id="node9" class="node">
<title>n9</title>
<ellipse fill="none" stroke="black" cx="198.85" cy="-810" rx="43.59" ry="18"/>
<text text-anchor="middle" x="198.85" y="-806.3" font-family="Times,serif" font-size="14.00">Varlist&#39;</text>
</g>
<!-- n6&#45;&gt;n9 -->
<g id="edge5" class="edge">
<title>n6&#45;&gt;n9</title>
<path fill="none" stroke="black" d="M140.09,-865.12C150.2,-855.81 163.13,-843.9 174.28,-833.62"/>
<polygon fill="black" stroke="black" points="176.68,-836.17 181.67,-826.82 171.94,-831.02 176.68,-836.17"/>
</g>
<!-- n12 -->
<g id="node12" class="node">
<title>n12</title>
<ellipse fill="none" stroke="black" cx="358.85" cy="-954" rx="27" ry="18"/>
<text text-anchor="middle" x="358.85" y="-950.3" font-family="Times,serif" font-size="14.00">Tl</text>
</g>
<!-- n11&#45;&gt;n12 -->
<g id="edge24" class="edge">
<title>n11&#45;&gt;n12</title>
<path fill="none" stroke="black" d="M358.85,-1007.7C358.85,-999.98 358.85,-990.71 358.85,-982.11"/>
<polygon fill="black" stroke="black" points="362.35,-982.1 358.85,-972.1 355.35,-982.1 362.35,-982.1"/>
</g>
<!-- n27 -->
<g id="node27" class="node">
<title>n27</title>
<ellipse fill="none" stroke="black" cx="511.85" cy="-954" rx="27" ry="18"/>
<text text-anchor="middle" x="511.85" y="-950.3" font-family="Times,serif" font-size="14.00">El&#39;</text>
</g>
<!-- n11&#45;&gt;n27 -->
<g id="edge53" class="edge">
<title>n11&#45;&gt;n27</title>
<path fill="none" stroke="black" d="M380.44,-1015.12C406.61,-1003.15 450.88,-982.89 480.72,-969.24"/>
<polygon fill="black" stroke="black" points="482.23,-972.4 489.86,-965.06 479.31,-966.03 482.23,-972.4"/>
</g>
<!-- n13 -->
<g id="node13" class="node">
<title>n13</title>
<ellipse fill="none" stroke="black" cx="322.85" cy="-882" rx="27" ry="18"/>
<text text-anchor="middle" x="322.85" y="-878.3" font-family="Times,serif" font-size="14.00">Fl</text>
</g>
<!-- n12&#45;&gt;n13 -->
<g id="edge22" class="edge">
<title>n12&#45;&gt;n13</title>
<path fill="none" stroke="black" d="M350.5,-936.76C346.13,-928.28 340.7,-917.71 335.8,-908.2"/>
<polygon fill="black" stroke="black" points="338.84,-906.44 331.15,-899.15 332.61,-909.64 338.84,-906.44"/>
</g>
<!-- n26 -->
<g id="node26" class="node">
<title>n26</title>
<ellipse fill="none" stroke="black" cx="394.85" cy="-882" rx="27" ry="18"/>
<text text-anchor="middle" x="394.85" y="-878.3" font-family="Times,serif" font-size="14.00">Tl&#39;</text>
</g>
<!-- n12&#45;&gt;n26 -->
<g id="edge23" class="edge">
<title>n12&#45;&gt;n26</title>
<path fill="none" stroke="black" d="M367.2,-936.76C371.56,-928.28 376.99,-917.71 381.89,-908.2"/>
<polygon fill="black" stroke="black" points="385.08,-909.64 386.54,-899.15 378.86,-906.44 385.08,-909.64"/>
</g>
<!-- n14 -->
<g id="node14" class="node">
<title>n14</title>
<ellipse fill="none" stroke="black" cx="322.85" cy="-810" rx="62.29" ry="18"/>
<text text-anchor="middle" x="322.85" y="-806.3" font-family="Times,serif" font-size="14.00">Expression</text>
</g>
<!-- n13&#45;&gt;n14 -->
<g id="edge21" class="edge">
<title>n13&#45;&gt;n14</title>
<path fill="none" stroke="black" d="M322.85,-863.7C322.85,-855.98 322.85,-846.71 322.85,-838.11"/>
<polygon fill="black" stroke="black" points="326.35,-838.1 322.85,-828.1 319.35,-838.1 326.35,-838.1"/>
</g>
<!-- n15 -->
<g id="node15" class="node">
<title>n15</title>
<ellipse fill="none" stroke="black" cx="161.85" cy="-738" rx="34.39" ry="18"/>
<text text-anchor="middle" x="161.85" y="-734.3" font-family="Times,serif" font-size="14.00">Term</text>
</g>
<!-- n14&#45;&gt;n15 -->
<g id="edge13" class="edge">
<title>n14&#45;&gt;n15</title>
<path fill="none" stroke="black" d="M289.88,-794.67C262.72,-782.86 224.32,-766.16 196.67,-754.14"/>
<polygon fill="black" stroke="black" points="197.94,-750.87 187.37,-750.1 195.14,-757.29 197.94,-750.87"/>
</g>
<!-- n19 -->
<g id="node19" class="node">
<title>n19</title>
<ellipse fill="none" stroke="black" cx="322.85" cy="-738" rx="64.99" ry="18"/>
<text text-anchor="middle" x="322.85" y="-734.3" font-family="Times,serif" font-size="14.00">Expression&#39;</text>
</g>
<!-- n14&#45;&gt;n19 -->
<g id="edge20" class="edge">
<title>n14&#45;&gt;n19</title>
<path fill="none" stroke="black" d="M322.85,-791.7C322.85,-783.98 322.85,-774.71 322.85,-766.11"/>
<polygon fill="black" stroke="black" points="326.35,-766.1 322.85,-756.1 319.35,-766.1 326.35,-766.1"/>
</g>
<!-- n16 -->
<g id="node16" class="node">
<title>n16</title>
<ellipse fill="none" stroke="black" cx="66.85" cy="-666" rx="40.09" ry="18"/>
<text text-anchor="middle" x="66.85" y="-662.3" font-family="Times,serif" font-size="14.00">Factor</text>
</g>
<!-- n15&#45;&gt;n16 -->
<g id="edge11" class="edge">
<title>n15&#45;&gt;n16</title>
<path fill="none" stroke="black" d="M142.62,-722.83C128.99,-712.79 110.47,-699.15 95.15,-687.86"/>
<polygon fill="black" stroke="black" points="97.15,-684.98 87.03,-681.87 93,-690.62 97.15,-684.98"/>
</g>
<!-- n18 -->
<g id="node18" class="node">
<title>n18</title>
<ellipse fill="none" stroke="black" cx="161.85" cy="-666" rx="37.09" ry="18"/>
<text text-anchor="middle" x="161.85" y="-662.3" font-family="Times,serif" font-size="14.00">Term&#39;</text>
</g>
<!-- n15&#45;&gt;n18 -->
<g id="edge12" class="edge">
<title>n15&#45;&gt;n18</title>
<path fill="none" stroke="black" d="M161.85,-719.7C161.85,-711.98 161.85,-702.71 161.85,-694.11"/>
<polygon fill="black" stroke="black" points="165.35,-694.1 161.85,-684.1 158.35,-694.1 165.35,-694.1"/>
</g>
<!-- n17 -->
<g id="node17" class="node">
<title>n17</title>
<ellipse fill="none" stroke="black" cx="66.85" cy="-594" rx="27" ry="18"/>
<text text-anchor="middle" x="66.85" y="-590.3" font-family="Times,serif" font-size="14.00">n</text>
</g>
<!-- n16&#45;&gt;n17 -->
<g id="edge10" class="edge">
<title>n16&#45;&gt;n17</title>
<path fill="none" stroke="black" d="M66.85,-647.7C66.85,-639.98 66.85,-630.71 66.85,-622.11"/>
<polygon fill="black" stroke="black" points="70.35,-622.1 66.85,-612.1 63.35,-622.1 70.35,-622.1"/>
</g>
<!-- n20 -->
<g id="node20" class="node">
<title>n20</title>
<ellipse fill="none" stroke="black" cx="243.85" cy="-666" rx="27" ry="18"/>
<text text-anchor="middle" x="243.85" y="-662.3" font-family="Times,serif" font-size="14.00">+</text>
</g>
<!-- n19&#45;&gt;n20 -->
<g id="edge14" class="edge">
<title>n19&#45;&gt;n20</title>
<path fill="none" stroke="black" d="M304.12,-720.41C293.08,-710.62 279,-698.15 267.22,-687.72"/>
<polygon fill="black" stroke="black" points="269.31,-684.89 259.51,-680.88 264.67,-690.13 269.31,-684.89"/>
</g>
<!-- n21 -->
<g id="node21" class="node">
<title>n21</title>
<ellipse fill="none" stroke="black" cx="322.85" cy="-666" rx="34.39" ry="18"/>
<text text-anchor="middle" x="322.85" y="-662.3" font-family="Times,serif" font-size="14.00">Term</text>
</g>
<!-- n19&#45;&gt;n21 -->
<g id="edge18" class="edge">
<title>n19&#45;&gt;n21</title>
<path fill="none" stroke="black" d="M322.85,-719.7C322.85,-711.98 322.85,-702.71 322.85,-694.11"/>
<polygon fill="black" stroke="black" points="326.35,-694.1 322.85,-684.1 319.35,-694.1 326.35,-694.1"/>
</g>
<!-- n25 -->
<g id="node25" class="node">
<title>n25</title>
<ellipse fill="none" stroke="black" cx="439.85" cy="-666" rx="64.99" ry="18"/>
<text text-anchor="middle" x="439.85" y="-662.3" font-family="Times,serif" font-size="14.00">Expression&#39;</text>
</g>
<!-- n19&#45;&gt;n25 -->
<g id="edge19" class="edge">
<title>n19&#45;&gt;n25</title>
<path fill="none" stroke="black" d="M348.81,-721.46C365.21,-711.66 386.6,-698.85 404.53,-688.13"/>
<polygon fill="black" stroke="black" points="406.76,-690.87 413.55,-682.73 403.17,-684.86 406.76,-690.87"/>
</g>
<!-- n22 -->
<g id="node22" class="node">
<title>n22</title>
<ellipse fill="none" stroke="black" cx="238.85" cy="-594" rx="40.09" ry="18"/>
<text text-anchor="middle" x="238.85" y="-590.3" font-family="Times,serif" font-size="14.00">Factor</text>
</g>
<!-- n21&#45;&gt;n22 -->
<g id="edge16" class="edge">
<title>n21&#45;&gt;n22</title>
<path fill="none" stroke="black" d="M305.03,-650.15C293.39,-640.45 277.98,-627.61 264.96,-616.76"/>
<polygon fill="black" stroke="black" points="267.14,-614.02 257.22,-610.31 262.66,-619.4 267.14,-614.02"/>
</g>
<!-- n24 -->
<g id="node24" class="node">
<title>n24</title>
<ellipse fill="none" stroke="black" cx="333.85" cy="-594" rx="37.09" ry="18"/>
<text text-anchor="middle" x="333.85" y="-590.3" font-family="Times,serif" font-size="14.00">Term&#39;</text>
</g>
<!-- n21&#45;&gt;n24 -->
<g id="edge17" class="edge">
<title>n21&#45;&gt;n24</title>
<path fill="none" stroke="black" d="M325.57,-647.7C326.78,-639.98 328.23,-630.71 329.59,-622.11"/>
<polygon fill="black" stroke="black" points="333.06,-622.53 331.16,-612.1 326.15,-621.44 333.06,-622.53"/>
</g>
<!-- n23 -->
<g id="node23" class="node">
<title>n23</title>
<ellipse fill="none" stroke="black" cx="238.85" cy="-522" rx="27" ry="18"/>
<text text-anchor="middle" x="238.85" y="-518.3" font-family="Times,serif" font-size="14.00">m</text>
</g>
<!-- n22&#45;&gt;n23 -->
<g id="edge15" class="edge">
<title>n22&#45;&gt;n23</title>
<path fill="none" stroke="black" d="M238.85,-575.7C238.85,-567.98 238.85,-558.71 238.85,-550.11"/>
<polygon fill="black" stroke="black" points="242.35,-550.1 238.85,-540.1 235.35,-550.1 242.35,-550.1"/>
</g>
<!-- n28 -->
<g id="node28" class="node">
<title>n28</title>
<ellipse fill="none" stroke="black" cx="475.85" cy="-882" rx="27" ry="18"/>
<text text-anchor="middle" x="475.85" y="-878.3" font-family="Times,serif" font-size="14.00">|</text>
</g>
<!-- n27&#45;&gt;n28 -->
<g id="edge25" class="edge">
<title>n27&#45;&gt;n28</title>
<path fill="none" stroke="black" d="M503.5,-936.76C499.13,-928.28 493.7,-917.71 488.8,-908.2"/>
<polygon fill="black" stroke="black" points="491.84,-906.44 484.15,-899.15 485.61,-909.64 491.84,-906.44"/>
</g>
<!-- n29 -->
<g id="node29" class="node">
<title>n29</title>
<ellipse fill="none" stroke="black" cx="547.85" cy="-882" rx="27" ry="18"/>
<text text-anchor="middle" x="547.85" y="-878.3" font-family="Times,serif" font-size="14.00">Tl</text>
</g>
<!-- n27&#45;&gt;n29 -->
<g id="edge51" class="edge">
<title>n27&#45;&gt;n29</title>
<path fill="none" stroke="black" d="M520.2,-936.76C524.56,-928.28 529.99,-917.71 534.89,-908.2"/>
<polygon fill="black" stroke="black" points="538.08,-909.64 539.54,-899.15 531.86,-906.44 538.08,-909.64"/>
</g>
<!-- n55 -->
<g id="node55" class="node">
<title>n55</title>
<ellipse fill="none" stroke="black" cx="619.85" cy="-882" rx="27" ry="18"/>
<text text-anchor="middle" x="619.85" y="-878.3" font-family="Times,serif" font-size="14.00">El&#39;</text>
</g>
<!-- n27&#45;&gt;n55 -->
<g id="edge52" class="edge">
<title>n27&#45;&gt;n55</title>
<path fill="none" stroke="black" d="M530.66,-940.81C547.85,-929.67 573.46,-913.06 592.84,-900.5"/>
<polygon fill="black" stroke="black" points="594.76,-903.43 601.25,-895.05 590.95,-897.56 594.76,-903.43"/>
</g>
<!-- n30 -->
<g id="node30" class="node">
<title>n30</title>
<ellipse fill="none" stroke="black" cx="480.85" cy="-810" rx="27" ry="18"/>
<text text-anchor="middle" x="480.85" y="-806.3" font-family="Times,serif" font-size="14.00">~</text>
</g>
<!-- n29&#45;&gt;n30 -->
<g id="edge26" class="edge">
<title>n29&#45;&gt;n30</title>
<path fill="none" stroke="black" d="M533.96,-866.5C524.71,-856.83 512.37,-843.94 501.92,-833.02"/>
<polygon fill="black" stroke="black" points="504.15,-830.29 494.71,-825.49 499.1,-835.13 504.15,-830.29"/>
</g>
<!-- n31 -->
<g id="node31" class="node">
<title>n31</title>
<ellipse fill="none" stroke="black" cx="552.85" cy="-810" rx="27" ry="18"/>
<text text-anchor="middle" x="552.85" y="-806.3" font-family="Times,serif" font-size="14.00">Fl</text>
</g>
<!-- n29&#45;&gt;n31 -->
<g id="edge49" class="edge">
<title>n29&#45;&gt;n31</title>
<path fill="none" stroke="black" d="M549.08,-863.7C549.63,-855.98 550.3,-846.71 550.91,-838.11"/>
<polygon fill="black" stroke="black" points="554.4,-838.33 551.62,-828.1 547.42,-837.83 554.4,-838.33"/>
</g>
<!-- n54 -->
<g id="node54" class="node">
<title>n54</title>
<ellipse fill="none" stroke="black" cx="624.85" cy="-810" rx="27" ry="18"/>
<text text-anchor="middle" x="624.85" y="-806.3" font-family="Times,serif" font-size="14.00">Tl&#39;</text>
</g>
<!-- n29&#45;&gt;n54 -->
<g id="edge50" class="edge">
<title>n29&#45;&gt;n54</title>
<path fill="none" stroke="black" d="M563.43,-866.83C574.46,-856.81 589.44,-843.19 601.84,-831.92"/>
<polygon fill="black" stroke="black" points="604.5,-834.22 609.55,-824.91 599.8,-829.04 604.5,-834.22"/>
</g>
<!-- n32 -->
<g id="node32" class="node">
<title>n32</title>
<ellipse fill="none" stroke="black" cx="556.85" cy="-738" rx="62.29" ry="18"/>
<text text-anchor="middle" x="556.85" y="-734.3" font-family="Times,serif" font-size="14.00">Expression</text>
</g>
<!-- n31&#45;&gt;n32 -->
<g id="edge48" class="edge">
<title>n31&#45;&gt;n32</title>
<path fill="none" stroke="black" d="M553.83,-791.7C554.28,-783.98 554.81,-774.71 555.3,-766.11"/>
<polygon fill="black" stroke="black" points="558.79,-766.29 555.87,-756.1 551.8,-765.89 558.79,-766.29"/>
</g>
<!-- n33 -->
<g id="node33" class="node">
<title>n33</title>
<ellipse fill="none" stroke="black" cx="556.85" cy="-666" rx="34.39" ry="18"/>
<text text-anchor="middle" x="556.85" y="-662.3" font-family="Times,serif" font-size="14.00">Term</text>
</g>
<!-- n32&#45;&gt;n33 -->
<g id="edge46" class="edge">
<title>n32&#45;&gt;n33</title>
<path fill="none" stroke="black" d="M556.85,-719.7C556.85,-711.98 556.85,-702.71 556.85,-694.11"/>
<polygon fill="black" stroke="black" points="560.35,-694.1 556.85,-684.1 553.35,-694.1 560.35,-694.1"/>
</g>
<!-- n53 -->
<g id="node53" class="node">
<title>n53</title>
<ellipse fill="none" stroke="black" cx="673.85" cy="-666" rx="64.99" ry="18"/>
<text text-anchor="middle" x="673.85" y="-662.3" font-family="Times,serif" font-size="14.00">Expression&#39;</text>
</g>
<!-- n32&#45;&gt;n53 -->
<g id="edge47" class="edge">
<title>n32&#45;&gt;n53</title>
<path fill="none" stroke="black" d="M582.81,-721.46C599.21,-711.66 620.6,-698.85 638.53,-688.13"/>
<polygon fill="black" stroke="black" points="640.76,-690.87 647.55,-682.73 637.17,-684.86 640.76,-690.87"/>
</g>
<!-- n34 -->
<g id="node34" class="node">
<title>n34</title>
<ellipse fill="none" stroke="black" cx="497.85" cy="-594" rx="40.09" ry="18"/>
<text text-anchor="middle" x="497.85" y="-590.3" font-family="Times,serif" font-size="14.00">Factor</text>
</g>
<!-- n33&#45;&gt;n34 -->
<g id="edge28" class="edge">
<title>n33&#45;&gt;n34</title>
<path fill="none" stroke="black" d="M543.46,-649.12C536.02,-640.29 526.61,-629.13 518.28,-619.24"/>
<polygon fill="black" stroke="black" points="520.71,-616.7 511.59,-611.31 515.36,-621.21 520.71,-616.7"/>
</g>
<!-- n36 -->
<g id="node36" class="node">
<title>n36</title>
<ellipse fill="none" stroke="black" cx="614.85" cy="-594" rx="37.09" ry="18"/>
<text text-anchor="middle" x="614.85" y="-590.3" font-family="Times,serif" font-size="14.00">Term&#39;</text>
</g>
<!-- n33&#45;&gt;n36 -->
<g id="edge45" class="edge">
<title>n33&#45;&gt;n36</title>
<path fill="none" stroke="black" d="M570.01,-649.12C577.32,-640.29 586.57,-629.13 594.76,-619.24"/>
<polygon fill="black" stroke="black" points="597.65,-621.24 601.33,-611.31 592.26,-616.77 597.65,-621.24"/>
</g>
<!-- n35 -->
<g id="node35" class="node">
<title>n35</title>
<ellipse fill="none" stroke="black" cx="477.85" cy="-522" rx="27" ry="18"/>
<text text-anchor="middle" x="477.85" y="-518.3" font-family="Times,serif" font-size="14.00">42</text>
</g>
<!-- n34&#45;&gt;n35 -->
<g id="edge27" class="edge">
<title>n34&#45;&gt;n35</title>
<path fill="none" stroke="black" d="M493,-576.05C490.74,-568.14 488,-558.54 485.47,-549.69"/>
<polygon fill="black" stroke="black" points="488.76,-548.44 482.64,-539.79 482.02,-550.37 488.76,-548.44"/>
</g>
<!-- n37 -->
<g id="node37" class="node">
<title>n37</title>
<ellipse fill="none" stroke="black" cx="549.85" cy="-522" rx="27" ry="18"/>
<text text-anchor="middle" x="549.85" y="-518.3" font-family="Times,serif" font-size="14.00">*</text>
</g>
<!-- n36&#45;&gt;n37 -->
<g id="edge29" class="edge">
<title>n36&#45;&gt;n37</title>
<path fill="none" stroke="black" d="M600.1,-577.12C591.38,-567.73 580.21,-555.7 570.61,-545.36"/>
<polygon fill="black" stroke="black" points="573.02,-542.81 563.65,-537.86 567.89,-547.57 573.02,-542.81"/>
</g>
<!-- n38 -->
<g id="node38" class="node">
<title>n38</title>
<ellipse fill="none" stroke="black" cx="634.85" cy="-522" rx="40.09" ry="18"/>
<text text-anchor="middle" x="634.85" y="-518.3" font-family="Times,serif" font-size="14.00">Factor</text>
</g>
<!-- n36&#45;&gt;n38 -->
<g id="edge43" class="edge">
<title>n36&#45;&gt;n38</title>
<path fill="none" stroke="black" d="M619.69,-576.05C621.91,-568.26 624.61,-558.82 627.11,-550.08"/>
<polygon fill="black" stroke="black" points="630.53,-550.85 629.91,-540.28 623.8,-548.93 630.53,-550.85"/>
</g>
<!-- n52 -->
<g id="node52" class="node">
<title>n52</title>
<ellipse fill="none" stroke="black" cx="729.85" cy="-522" rx="37.09" ry="18"/>
<text text-anchor="middle" x="729.85" y="-518.3" font-family="Times,serif" font-size="14.00">Term&#39;</text>
</g>
<!-- n36&#45;&gt;n52 -->
<g id="edge44" class="edge">
<title>n36&#45;&gt;n52</title>
<path fill="none" stroke="black" d="M637.02,-579.5C654.68,-568.75 679.6,-553.59 699.17,-541.67"/>
<polygon fill="black" stroke="black" points="701.02,-544.64 707.74,-536.46 697.38,-538.67 701.02,-544.64"/>
</g>
<!-- n39 -->
<g id="node39" class="node">
<title>n39</title>
<ellipse fill="none" stroke="black" cx="562.85" cy="-450" rx="27" ry="18"/>
<text text-anchor="middle" x="562.85" y="-446.3" font-family="Times,serif" font-size="14.00">(</text>
</g>
<!-- n38&#45;&gt;n39 -->
<g id="edge30" class="edge">
<title>n38&#45;&gt;n39</title>
<path fill="none" stroke="black" d="M618.87,-505.46C608.9,-495.78 595.94,-483.17 584.99,-472.53"/>
<polygon fill="black" stroke="black" points="587.41,-470 577.8,-465.54 582.53,-475.02 587.41,-470"/>
</g>
<!-- n40 -->
<g id="node40" class="node">
<title>n40</title>
<ellipse fill="none" stroke="black" cx="634.85" cy="-450" rx="27" ry="18"/>
<text text-anchor="middle" x="634.85" y="-446.3" font-family="Times,serif" font-size="14.00">El</text>
</g>
<!-- n38&#45;&gt;n40 -->
<g id="edge41" class="edge">
<title>n38&#45;&gt;n40</title>
<path fill="none" stroke="black" d="M634.85,-503.7C634.85,-495.98 634.85,-486.71 634.85,-478.11"/>
<polygon fill="black" stroke="black" points="638.35,-478.1 634.85,-468.1 631.35,-478.1 638.35,-478.1"/>
</g>
<!-- n51 -->
<g id="node51" class="node">
<title>n51</title>
<ellipse fill="none" stroke="black" cx="706.85" cy="-450" rx="27" ry="18"/>
<text text-anchor="middle" x="706.85" y="-446.3" font-family="Times,serif" font-size="14.00">)</text>
</g>
<!-- n38&#45;&gt;n51 -->
<g id="edge42" class="edge">
<title>n38&#45;&gt;n51</title>
<path fill="none" stroke="black" d="M650.83,-505.46C660.79,-495.78 673.75,-483.17 684.7,-472.53"/>
<polygon fill="black" stroke="black" points="687.16,-475.02 691.89,-465.54 682.29,-470 687.16,-475.02"/>
</g>
<!-- n41 -->
<g id="node41" class="node">
<title>n41</title>
<ellipse fill="none" stroke="black" cx="598.85" cy="-378" rx="27" ry="18"/>
<text text-anchor="middle" x="598.85" y="-374.3" font-family="Times,serif" font-size="14.00">Tl</text>
</g>
<!-- n40&#45;&gt;n41 -->
<g id="edge39" class="edge">
<title>n40&#45;&gt;n41</title>
<path fill="none" stroke="black" d="M626.5,-432.76C622.13,-424.28 616.7,-413.71 611.8,-404.2"/>
<polygon fill="black" stroke="black" points="614.84,-402.44 607.15,-395.15 608.61,-405.64 614.84,-402.44"/>
</g>
<!-- n50 -->
<g id="node50" class="node">
<title>n50</title>
<ellipse fill="none" stroke="black" cx="670.85" cy="-378" rx="27" ry="18"/>
<text text-anchor="middle" x="670.85" y="-374.3" font-family="Times,serif" font-size="14.00">El&#39;</text>
</g>
<!-- n40&#45;&gt;n50 -->
<g id="edge40" class="edge">
<title>n40&#45;&gt;n50</title>
<path fill="none" stroke="black" d="M643.2,-432.76C647.56,-424.28 652.99,-413.71 657.89,-404.2"/>
<polygon fill="black" stroke="black" points="661.08,-405.64 662.54,-395.15 654.86,-402.44 661.08,-405.64"/>
</g>
<!-- n42 -->
<g id="node42" class="node">
<title>n42</title>
<ellipse fill="none" stroke="black" cx="562.85" cy="-306" rx="27" ry="18"/>
<text text-anchor="middle" x="562.85" y="-302.3" font-family="Times,serif" font-size="14.00">Fl</text>
</g>
<!-- n41&#45;&gt;n42 -->
<g id="edge37" class="edge">
<title>n41&#45;&gt;n42</title>
<path fill="none" stroke="black" d="M590.5,-360.76C586.13,-352.28 580.7,-341.71 575.8,-332.2"/>
<polygon fill="black" stroke="black" points="578.84,-330.44 571.15,-323.15 572.61,-333.64 578.84,-330.44"/>
</g>
<!-- n49 -->
<g id="node49" class="node">
<title>n49</title>
<ellipse fill="none" stroke="black" cx="634.85" cy="-306" rx="27" ry="18"/>
<text text-anchor="middle" x="634.85" y="-302.3" font-family="Times,serif" font-size="14.00">Tl&#39;</text>
</g>
<!-- n41&#45;&gt;n49 -->
<g id="edge38" class="edge">
<title>n41&#45;&gt;n49</title>
<path fill="none" stroke="black" d="M607.2,-360.76C611.56,-352.28 616.99,-341.71 621.89,-332.2"/>
<polygon fill="black" stroke="black" points="625.08,-333.64 626.54,-323.15 618.86,-330.44 625.08,-333.64"/>
</g>
<!-- n43 -->
<g id="node43" class="node">
<title>n43</title>
<ellipse fill="none" stroke="black" cx="562.85" cy="-234" rx="62.29" ry="18"/>
<text text-anchor="middle" x="562.85" y="-230.3" font-family="Times,serif" font-size="14.00">Expression</text>
</g>
<!-- n42&#45;&gt;n43 -->
<g id="edge36" class="edge">
<title>n42&#45;&gt;n43</title>
<path fill="none" stroke="black" d="M562.85,-287.7C562.85,-279.98 562.85,-270.71 562.85,-262.11"/>
<polygon fill="black" stroke="black" points="566.35,-262.1 562.85,-252.1 559.35,-262.1 566.35,-262.1"/>
</g>
<!-- n44 -->
<g id="node44" class="node">
<title>n44</title>
<ellipse fill="none" stroke="black" cx="504.85" cy="-162" rx="34.39" ry="18"/>
<text text-anchor="middle" x="504.85" y="-158.3" font-family="Times,serif" font-size="14.00">Term</text>
</g>
<!-- n43&#45;&gt;n44 -->
<g id="edge34" class="edge">
<title>n43&#45;&gt;n44</title>
<path fill="none" stroke="black" d="M549.1,-216.41C541.77,-207.57 532.63,-196.53 524.56,-186.79"/>
<polygon fill="black" stroke="black" points="527.17,-184.46 518.09,-178.99 521.78,-188.92 527.17,-184.46"/>
</g>
<!-- n48 -->
<g id="node48" class="node">
<title>n48</title>
<ellipse fill="none" stroke="black" cx="621.85" cy="-162" rx="64.99" ry="18"/>
<text text-anchor="middle" x="621.85" y="-158.3" font-family="Times,serif" font-size="14.00">Expression&#39;</text>
</g>
<!-- n43&#45;&gt;n48 -->
<g id="edge35" class="edge">
<title>n43&#45;&gt;n48</title>
<path fill="none" stroke="black" d="M576.83,-216.41C584.07,-207.82 593.05,-197.16 601.09,-187.63"/>
<polygon fill="black" stroke="black" points="603.79,-189.86 607.55,-179.96 598.43,-185.35 603.79,-189.86"/>
</g>
<!-- n45 -->
<g id="node45" class="node">
<title>n45</title>
<ellipse fill="none" stroke="black" cx="457.85" cy="-90" rx="40.09" ry="18"/>
<text text-anchor="middle" x="457.85" y="-86.3" font-family="Times,serif" font-size="14.00">Factor</text>
</g>
<!-- n44&#45;&gt;n45 -->
<g id="edge32" class="edge">
<title>n44&#45;&gt;n45</title>
<path fill="none" stroke="black" d="M493.95,-144.76C488.21,-136.23 481.07,-125.58 474.64,-116.02"/>
<polygon fill="black" stroke="black" points="477.49,-113.98 469.01,-107.63 471.68,-117.89 477.49,-113.98"/>
</g>
<!-- n47 -->
<g id="node47" class="node">
<title>n47</title>
<ellipse fill="none" stroke="black" cx="552.85" cy="-90" rx="37.09" ry="18"/>
<text text-anchor="middle" x="552.85" y="-86.3" font-family="Times,serif" font-size="14.00">Term&#39;</text>
</g>
<!-- n44&#45;&gt;n47 -->
<g id="edge33" class="edge">
<title>n44&#45;&gt;n47</title>
<path fill="none" stroke="black" d="M515.98,-144.76C521.83,-136.23 529.13,-125.58 535.69,-116.02"/>
<polygon fill="black" stroke="black" points="538.67,-117.86 541.44,-107.63 532.9,-113.9 538.67,-117.86"/>
</g>
<!-- n46 -->
<g id="node46" class="node">
<title>n46</title>
<ellipse fill="none" stroke="black" cx="457.85" cy="-18" rx="27" ry="18"/>
<text text-anchor="middle" x="457.85" y="-14.3" font-family="Times,serif" font-size="14.00">n</text>
</g>
<!-- n45&#45;&gt;n46 -->
<g id="edge31" class="edge">
<title>n45&#45;&gt;n46</title>
<path fill="none" stroke="black" d="M457.85,-71.7C457.85,-63.98 457.85,-54.71 457.85,-46.11"/>
<polygon fill="black" stroke="black" points="461.35,-46.1 457.85,-36.1 454.35,-46.1 461.35,-46.1"/>
</g>
</g>
</svg>
